# xmcd CD database file
#
# Track frame offsets:
#	150
#	13290
#	34227
#	49595
#	68811
#	82999
#	95685
#	125832
#	134734
#	153947
#	178670
#	191706
#	210487
#
# Disc length: 2993 seconds
#
# Revision: 0
# Processed by: cddbd v1.5.2PL0 Copyright (c) Steve Scherf et al.
# Submitted via: CDex 1.51
#
DISCID=bb0baf0d
DTITLE=Sellam - Renne - Embrasse-moi
DYEAR=1900
DGENRE=Jazz
TTITLE0=Lambaréné
TTITLE1=Embrasse-moi
TTITLE2=Casamance
TTITLE3=La femme voilée
TTITLE4=Express
TTITLE5=L'oiseau de mauvais augure
TTITLE6=Malamba
TTITLE7=Findo cala
TTITLE8=Cadeau empoisonné
TTITLE9=i comme iguane
TTITLE10=Orient bay
TTITLE11=La  bonne dame
TTITLE12=Les pensées d'un orphelin
EXTD=
EXTT0=
EXTT1=
EXTT2=
EXTT3=
EXTT4=
EXTT5=
EXTT6=
EXTT7=
EXTT8=
EXTT9=
EXTT10=
EXTT11=
EXTT12=
PLAYORDER=
